Format : MPEG-4
Format profile : Base Media
Codec ID : isom
File size : 421 MiB
Duration : 53mn 23s
Overall bit rate mode : Variable
Overall bit rate : 1 103 Kbps

Video
ID : 1
Format : AVC
Format/Info : Advanced Video Codec
Format profile : High 10@L4.1
Format settings, CABAC : Yes
Format settings, ReFrames : 4 frames
Codec ID : avc1
Codec ID/Info : Advanced Video Coding
Duration : 53mn 23s
Bit rate : 909 Kbps
Maximum bit rate : 14.4 Mbps
Width : 1 280 pixels
Height : 720 pixels
Display aspect ratio : 16:9
Frame rate mode : Constant
Frame rate : 23.976 fps
Color space : YUV
Chroma subsampling : 4:2:0
Bit depth : 10 bits
Scan type : Progressive
Bits/(Pixel*Frame) : 0.041
Stream size : 348 MiB (83%)

Audio
ID : 2
Format : AAC
Format/Info : Advanced Audio Codec
Format profile : LC
Codec ID : 40
Duration : 53mn 23s
Bit rate mode : Variable
Bit rate : 192 Kbps
Maximum bit rate : 262 Kbps
Channel(s) : 6 channels
Channel positions : Front: L C R, Side: L R, LFE
Sampling rate : 48.0 KHz
Compression mode : Lossy
Stream size : 72.0 MiB (17%)
Language : English